<svg viewBox="-35 -35 887 380" version="1.1" xmlns="http://www.w3.org/2000/svg">
    <style type="text/css">
        .ds-spin {
            animation: ds-spin 1s infinite;
            transform-origin: 125px 125px;
        }
        @keyframes ds-spin {
            0% {
                transform: rotate(0deg);
            }
            80% {
                transform: rotate(360deg);
            }
            100% {
                transform: rotate(360deg);
            }
        }
    </style>
    <path fill="#ffffff" d="M758.576177,11.3380081 L758.576177,106.549183 L825.952371,106.549183 L825.952371,88.7066192 L778.844226,88.7066192 L778.844226,67.0079699 L824.957487,67.0079699 L824.957487,49.1654058 L778.844226,49.1654058 L778.844226,29.1805722 L825.952371,29.1805722 L825.952371,11.3380081 L758.576177,11.3380081 Z M719.463417,11.3380081 L719.463417,71.1472704 L675.361711,11.3380081 L654.512708,11.3380081 L654.512708,106.549183 L674.780757,106.549183 L674.780757,44.4524127 L720.182348,106.549183 L739.738728,106.549183 L739.738728,11.3380081 L719.463417,11.3380081 Z M598.613326,10.1470926 L598.613326,28.6475044 C611.355081,32.1807604 619.184903,43.9325746 619.184903,58.7785452 C619.184903,76.4684328 607.913108,90.0191385 590.361717,90.0191385 C572.67183,90.0191385 561.400035,76.4684328 561.400035,58.7785452 C561.400035,43.2810075 569.919195,31.1325874 583.757912,28.2131264 L583.757912,9.93619894 C558.392439,12.8273309 540.567202,32.3412915 540.567202,58.7785452 C540.567202,87.4569377 561.536958,107.998611 590.361717,107.998611 C619.04011,107.998611 640.017736,87.4569377 640.017736,58.7785452 C640.017736,32.931479 622.97312,13.6945131 598.613326,10.1470926 M453.53151,11.3380081 L453.53151,106.549183 L473.799559,106.549183 L473.799559,29.1805722 L495.214993,29.1805722 C503.210379,29.1805722 509.346711,34.0388039 509.346711,41.8889511 L509.346711,41.8889511 C509.346711,50.0223136 503.210379,54.8732834 495.214993,54.8732834 L495.214993,54.8732834 L488.642946,54.8732834 L488.642946,72.7158475 L507.342418,106.549183 L530.754883,106.549183 L509.201472,70.2903626 C519.484366,67.8648777 530.188452,58.7293687 530.188452,42.0341897 L530.188452,42.0341897 C530.188452,24.3223404 517.908527,11.3380081 498.06167,11.3380081 L498.06167,11.3380081 L453.53151,11.3380081 Z M351.036618,11.3380081 L351.036618,106.549183 L388.718777,106.549183 C418.412813,106.549183 439.109315,87.7117347 439.109315,58.8746073 L439.109315,58.8746073 C439.109315,30.3279572 418.412813,11.3380081 388.580801,11.3380081 L388.580801,11.3380081 L351.036618,11.3380081 Z M371.311929,29.1805722 L388.718777,29.1805722 C408.13718,29.1805722 418.412813,42.1649045 418.412813,58.8746073 L418.412813,58.8746073 C418.412813,75.1485943 407.425511,88.7066192 388.580801,88.7066192 L388.580801,88.7066192 L371.311929,88.7066192 L371.311929,29.1805722 Z M427.620941,200.387854 C427.620941,229.079742 448.607921,249.631006 477.437786,249.631006 L477.437786,249.631006 C485.571149,249.631006 493.28332,247.917191 499.848105,244.925275 L499.848105,244.925275 L507.560276,253.777569 L521.691993,242.216575 L514.698754,234.075951 C522.403662,225.506872 527.116655,213.80064 527.116655,200.387854 L527.116655,200.387854 C527.116655,171.695965 506.129675,151.137439 477.437786,151.137439 L477.437786,151.137439 C448.607921,151.137439 427.620941,171.695965 427.620941,200.387854 L427.620941,200.387854 Z M448.462682,200.387854 C448.462682,182.545289 459.740461,169.125241 477.437786,169.125241 L477.437786,169.125241 C494.997135,169.125241 506.274914,182.545289 506.274914,200.387854 L506.274914,200.387854 C506.274914,207.243116 504.561098,213.524686 501.423944,218.513633 L501.423944,218.513633 L490.995811,206.24097 L476.871356,217.801964 L487.284965,230.074627 C484.293049,231.076773 481.003394,231.650466 477.437786,231.650466 L477.437786,231.650466 C459.740461,231.650466 448.462682,218.092441 448.462682,200.387854 L448.462682,200.387854 Z M343.113852,180.257781 C343.113852,216.088148 397.926906,204.527154 397.926906,221.084356 L397.926906,221.084356 C397.926906,226.654257 392.647482,231.650466 381.376965,231.650466 L381.376965,231.650466 C368.240132,231.650466 357.819262,225.652111 351.109238,218.658871 L351.109238,218.658871 L339.976698,234.504405 C348.966968,243.494675 362.103801,249.631006 380.512796,249.631006 L380.512796,249.631006 C406.06753,249.631006 418.630671,236.501436 418.630671,219.087325 L418.630671,219.087325 C418.630671,183.540174 363.955593,193.677829 363.955593,178.696466 L363.955593,178.696466 C363.955593,172.981327 368.813825,169.27048 377.375641,169.27048 L377.375641,169.27048 C387.077581,169.27048 397.360475,172.552873 405.065384,179.684089 L405.065384,179.684089 L416.350424,164.557487 C406.924438,155.850432 394.361298,151.282677 379.227434,151.282677 L379.227434,151.282677 C356.817115,151.282677 343.113852,164.41951 343.113852,180.257781 L343.113852,180.257781 Z M743.798148,152.713278 L743.798148,247.917191 L781.487569,247.917191 C811.174342,247.917191 831.878107,229.079742 831.878107,200.249877 L831.878107,200.249877 C831.878107,171.695965 811.174342,152.713278 781.34233,152.713278 L781.34233,152.713278 L743.798148,152.713278 Z M764.073458,170.555842 L781.487569,170.555842 C800.905972,170.555842 811.174342,183.540174 811.174342,200.249877 L811.174342,200.249877 C811.174342,216.516602 800.18704,230.074627 781.34233,230.074627 L781.34233,230.074627 L764.073458,230.074627 L764.073458,170.555842 Z M672.856345,152.713278 L636.169071,247.917191 L659.153082,247.917191 L685.557462,172.981327 L700.408111,213.945878 L684.351982,213.945878 L678.956367,231.788442 L705.97075,231.788442 L711.969105,247.917191 L734.953116,247.917191 L698.265841,152.713278 L672.856345,152.713278 Z M606.620274,152.713278 L606.620274,209.240147 C606.620274,222.514957 599.060604,231.650466 584.355194,231.650466 L584.355194,231.650466 C569.657046,231.650466 561.944876,222.514957 561.944876,209.240147 L561.944876,209.240147 L561.944876,152.713278 L541.386349,152.713278 L541.386349,209.806578 C541.386349,233.364281 555.372828,249.631006 584.355194,249.631006 L584.355194,249.631006 C613.33756,249.631006 627.324039,233.364281 627.324039,209.806578 L627.324039,209.806578 L627.324039,152.713278 L606.620274,152.713278 Z"/>
    <path fill="#ff6d00" d="M129.950471,231.86646 C139.888796,231.86646 149.487849,230.433329 158.581893,227.812747 L195.028267,250.111095 L130.712858,324.267337 L128.544638,324.267337 L64.2409283,250.506912 L101.036322,227.730854 C110.21421,230.406032 119.910755,231.86646 129.950471,231.86646 Z M31.3067985,98.0527785 C28.3157469,107.710326 26.7051806,117.976224 26.7051806,128.61649 C26.7051806,144.905437 30.5015153,160.295509 37.2206573,173.989222 L20.8946632,198.997845 C-3.40421883,160.915558 -5.65043228,112.914444 13.9902866,72.8784192 L31.3067985,98.0527785 Z M245.92333,72.2763092 C265.511403,112.286986 262.988313,160.219856 238.549042,198.304093 L222.599367,174.159248 C229.371154,160.420689 233.192837,144.972122 233.192837,128.61688 C233.192837,117.90447 231.560823,107.574228 228.532724,97.8581846 L245.92333,72.2763092 Z M59.5552724,21.3664272 C102.287924,-6.67224422 157.797863,-6.90037528 200.524665,20.9998576 L176.49876,36.4874214 C162.512572,29.3958604 146.709134,25.3772441 129.952226,25.3772441 C113.16802,25.3772441 97.3431342,29.4095092 83.3393972,36.5186188 L59.5552724,21.3664272 Z"/>
    <path fill="#272c2e" class="ds-spin" d="M36.2644567,6.44660677 C24.8891014,14.6164283 14.8844823,24.5235555 6.63666728,35.7799707 L67.3039289,127.621243 L6.80630319,220.287297 C8.64110082,222.777241 10.57729,225.19309 12.5797737,227.546545 C19.6089399,235.809958 27.6364233,243.213493 36.502337,249.554367 L129.476466,189.624144 L223.285125,249.384731 C232.117891,243.041908 240.110278,235.638373 247.108246,227.380808 C249.124379,225.003956 251.070317,222.566658 252.912914,220.049417 L192.245653,128.210094 L252.741329,35.5440403 C244.472065,24.3090733 234.442098,14.4253441 223.047245,6.2789207 L130.073116,66.2071937 L36.2644567,6.44660677 Z"/>
</svg>
