<svg version="1.1" xmlns="http://www.w3.org/2000/svg" viewBox="0 0 228 33">
  <path fill="#fff" d="M55.82-296.873v4.134c2.848.79,4.6,3.416,4.6,6.734,0,3.953-2.519,6.982-6.441,6.982-3.953,0-6.472-3.028-6.472-6.982,0-3.463,1.9-6.178,5-6.831v-4.085A10.6,10.6,0,0,0,42.848-286c0,6.409,4.686,11,11.128,11a10.678,10.678,0,0,0,11.1-11,10.589,10.589,0,0,0-9.253-10.868m35.706.373v21.268h15.05v-3.986H96.053v-4.847h10.3v-3.986h-10.3v-4.464h10.523V-296.5Zm-8.737,0v13.36L72.938-296.5H68.281v21.268h4.527V-289.1L82.95-275.232h4.368V-296.5Zm-59.4,0v21.268h4.527v-17.282H32.7a2.872,2.872,0,0,1,3.157,2.839,2.883,2.883,0,0,1-3.157,2.9H31.229v3.986l4.177,7.558h5.23l-4.815-8.1a6.15,6.15,0,0,0,4.688-6.312c0-3.956-2.743-6.857-7.176-6.857Zm-22.895,0v21.268H8.909c6.633,0,11.256-4.208,11.256-10.649h0c0-6.377-4.623-10.619-11.287-10.619H.491Zm4.529,3.986H8.909c4.338,0,6.633,2.9,6.633,6.633h0a6.373,6.373,0,0,1-6.664,6.664H5.02Z" transform="translate(0 300)" />
  <path fill="#fff" d="M1237.963-289.131c0,8,12.244,5.421,12.244,9.12h0c0,1.244-1.179,2.36-3.7,2.36h0a9.348,9.348,0,0,1-6.761-2.9h0l-2.487,3.54a12.282,12.282,0,0,0,9.055,3.379h0c5.708,0,8.515-2.933,8.515-6.823h0c0-7.94-12.213-5.676-12.213-9.022h0c0-1.277,1.085-2.106,3-2.106h0a9.14,9.14,0,0,1,6.185,2.326h0l2.521-3.379a11.837,11.837,0,0,0-8.292-2.965h0c-5.006,0-8.067,2.934-8.067,6.472Zm89.5-6.153v21.266h8.419c6.631,0,11.256-4.208,11.256-10.648h0c0-6.378-4.625-10.619-11.289-10.619h-8.386ZM1332-291.3h3.89c4.338,0,6.631,2.9,6.631,6.633h0a6.373,6.373,0,0,1-6.664,6.662H1332Zm-20.376-3.986-8.2,21.266h5.134l5.9-16.739,3.317,9.151h-3.587l-1.205,3.986h6.034l1.34,3.6h5.134l-8.2-21.266Zm-14.8,0v12.627c0,2.965-1.689,5.006-4.973,5.006h0c-3.283,0-5.006-2.041-5.006-5.006h0v-12.627h-4.592v12.753c0,5.262,3.124,8.9,9.6,8.9h0c6.474,0,9.6-3.634,9.6-8.9h0v-12.753Z" transform="translate(-1120 299)" />
  <path fill="#fff" d="M1457.8-276.939a8.857,8.857,0,0,0,2.456-.348l3.126,1.913-5.517,6.362h-.186l-5.516-6.328,3.156-1.954A8.85,8.85,0,0,0,1457.8-276.939Zm7.747-10.366,2.2-3.325a11.051,11.051,0,0,1-.633,10.811l-2.82-1.232a11.147,11.147,0,0,0,1.357-3.655A5.96,5.96,0,0,0,1465.547-287.3Zm-15.508,0a5.962,5.962,0,0,0-.107,2.6,11.152,11.152,0,0,0,1.357,3.655l-2.82,1.232a11.051,11.051,0,0,1-.633-10.811Zm3.606-5.057L1451.761-295a11.058,11.058,0,0,1,12.093-.031l-1.82,2.666a10.072,10.072,0,0,0-4.227-1.25A9.77,9.77,0,0,0,1453.645-292.362Z" transform="translate(-1310 300)" />
  <path fill="#ff6d00" d="M1454.612-291.243a11.381,11.381,0,0,0-2.542,2.516l5.2,7.879-5.19,7.95c.157.214.323.421.5.623a11.411,11.411,0,0,0,2.052,1.888l7.976-5.141,8.047,5.127a11.388,11.388,0,0,0,2.044-1.888c.173-.2.34-.413.5-.629l-5.2-7.879,5.19-7.949a11.382,11.382,0,0,0-2.547-2.511l-7.976,5.141Z" transform="translate(-1315 295)" />
</svg>
