<svg viewBox="-40 -40 480 540" version="1.1" xmlns="http://www.w3.org/2000/svg" xmlns:xlink="http://www.w3.org/1999/xlink">
      <style type="text/css">
        .ds-spin {
            animation: ds-spin 1s infinite;
            transform-origin: 200px 200px;
        }
        @keyframes ds-spin {
            0% {
                transform: rotate(0deg);
            }
            80% {
                transform: rotate(360deg);
            }
            100% {
                transform: rotate(360deg);
            }
        }
    </style>
    <path fill="#ff6d00" d="M48.2260653,151.04386 L21.5511169,112.264415 C-8.70411954,173.93728 -5.24397535,247.87984 32.1868552,306.5431 L57.3359761,268.01896 C46.9855795,246.924696 41.1375754,223.217302 41.1375754,198.125249 C41.1375754,181.734618 43.6185469,165.920678 48.2260653,151.04386 Z M378.828725,111.336904 L352.03964,150.744101 C356.704227,165.711027 359.218238,181.624086 359.218238,198.12585 C359.218238,223.320025 353.331187,247.117527 342.899693,268.280874 L367.46912,305.47442 C405.11621,246.808156 409.002865,172.970722 378.828725,111.336904 Z M91.7409827,32.9135767 L128.378864,56.254532 C149.9507,45.3034159 174.327896,39.0919765 200.182863,39.0919765 C225.995779,39.0919765 250.339935,45.2823907 271.884739,56.2064744 L308.895066,32.3489004 C243.077237,-10.6295746 157.567823,-10.2781537 91.7409827,32.9135767 Z M200.180159,357.175042 C184.714636,357.175042 169.777747,354.925347 155.639814,350.804412 L98.9589276,385.889433 L198.014566,499.512518 L201.354566,499.512518 L300.428226,385.279703 L244.284983,350.930563 C230.276205,354.967398 215.489495,357.175042 200.180159,357.175042 Z"/>
    <path fill="#272c2e" class="ds-spin" d="M55.863012,9.93057401 C38.3400248,22.515647 22.9285667,37.7769253 10.2233497,55.116693 L103.677279,196.592137 L10.4846627,339.338103 C13.3110478,343.173696 16.29362,346.895154 19.3783146,350.520496 C30.2062831,363.249741 42.5720935,374.654401 56.2294508,384.422099 L199.449985,292.10353 L343.956059,384.160786 C357.562355,374.390084 369.8741,362.985425 380.654011,350.26519 C383.759731,346.603805 386.757321,342.849308 389.595721,338.971664 L296.141792,197.499223 L389.331404,54.7532578 C376.593148,37.4465296 361.142643,22.2212945 343.58962,9.67226463 L200.369086,101.98783 L55.863012,9.93057401 Z"/>
</svg>
